<svg xmlns="http://www.w3.org/2000/svg" viewBox="0 0 48 48">
  <defs>
    <linearGradient id="g" x1="0" x2="1" y1="0" y2="1">
      <stop offset="0" stop-color="#60a5fa"/>
      <stop offset="1" stop-color="#2563eb"/>
    </linearGradient>
  </defs>
  <rect x="4" y="4" width="40" height="40" rx="10" fill="url(#g)"/>
  <g fill="#fff">
    <path d="M16 12h16a4 4 0 0 1 4 4v16a4 4 0 0 1-4 4H16a4 4 0 0 1-4-4V16a4 4 0 0 1 4-4zm8 6a5 5 0 1 0 0 10a5 5 0 0 0 0-10z" opacity=".9"/>
    <path d="M24 14v4M24 30v4M14 24h4M30 24h4" stroke="#fff" stroke-width="2" stroke-linecap="round"/>
  </g>
</svg>
